# OBJ generated by ONSHAPE BY PTC INC, 1.198 Units = meters
mtllib train cart.mtl
g Part 1
v -0.01905 0.03048 -0.04445 
v -0.01905 0.0285519 -0.04445 
v -0.01905 0.0285519 0.04445 
v -0.01905 0.03048 0.04445 
v -0.01143 0.03556 0.04445 
v -0.01143 0.03556 -0.04445 
v 0.01143 0.03556 0.04445 
v 0.01143 0.03556 -0.04445 
v 0.01905 0.03048 0.04445 
v 0.01905 0.03048 -0.04445 
v 0.01905 0.0286616 0.04445 
v 0.01905 0.0286616 -0.04445 
v 0.019812 0.0286616 -0.04445 
v 0.019812 0.0286616 0.04445 
v 0.019812 0.0259484 0.04445 
v 0.019812 0.0259484 -0.04445 
v 0.01905 0.0259484 0.04445 
v 0.01905 0.0259484 -0.04445 
v -0.019812 0.0285519 0.04445 
v -0.019812 0.0285519 -0.04445 
v -0.019812 0.0260581 -0.04445 
v -0.019812 0.0260581 0.04445 
v -0.01905 0.0260581 -0.04445 
v -0.01905 0.0260581 0.04445 
v -0.01905 0.02413 -0.034925 
v -0.01905 0.02413 -0.009525 
v -0.01905 0.02413 0.009525 
v -0.01905 0.01143 0.009525 
v -0.01905 0.00937696 -0.04445 
v -0.01905 0.01143 -0.034925 
v -0.01905 0.00937696 0.04445 
v -0.01905 0.01143 -0.009525 
v -0.01905 0.01143 0.034925 
v -0.01905 0.02413 0.034925 
v -0.01651 0.01143 0.009525 
v -0.01651 0.01143 0.034925 
v -0.01651 0.02413 0.034925 
v -0.01651 0.02413 0.009525 
v -0.01651 0.01143 -0.034925 
v -0.01651 0.01143 -0.009525 
v -0.01651 0.02413 -0.009525 
v -0.01651 0.02413 -0.034925 
v -0.019812 0.00937696 0.04445 
v -0.019812 0.00937696 -0.04445 
v -0.019812 0.00713304 0.04445 
v -0.019812 0.00713304 -0.04445 
v -0.01905 0.00713304 -0.04445 
v -0.01905 0.00713304 0.04445 
v -0.01905 0.00508 -0.04445 
v -0.01905 0.00508 0.04445 
v -0.01143 0 -0.04445 
v -0.01143 0 0.04445 
v 0.01143 0 -0.04445 
v 0.01143 0 0.04445 
v 0.01905 0.00508 -0.04445 
v 0.01905 0.00508 0.04445 
v 0.01905 0.00695731 -0.04445 
v 0.01905 0.00695731 0.04445 
v 0.019812 0.00695731 0.04445 
v 0.019812 0.00695731 -0.04445 
v 0.01905 0.00955269 -0.04445 
v 0.019812 0.00955269 -0.04445 
v 0.01905 0.00955269 0.04445 
v 0.019812 0.00955269 0.04445 
v 0.01905 0.02413 0.034925 
v 0.01905 0.02413 0.009525 
v 0.01905 0.02413 -0.009525 
v 0.01905 0.01143 0.034925 
v 0.01905 0.02413 -0.034925 
v 0.01905 0.01143 -0.034925 
v 0.01905 0.01143 0.009525 
v 0.01905 0.01143 -0.009525 
v 0.01651 0.01143 -0.009525 
v 0.01651 0.01143 -0.034925 
v 0.01651 0.02413 -0.034925 
v 0.01651 0.02413 -0.009525 
v 0.01651 0.01143 0.034925 
v 0.01651 0.01143 0.009525 
v 0.01651 0.02413 0.009525 
v 0.01651 0.02413 0.034925 
vn -1 0 1.95132e-16 
vn -0.5547 0.83205 1.0824e-16 
vn 0 1 0 
vn 0.5547 0.83205 -1.0824e-16 
vn 1 0 -1.95132e-16 
vn 0 1 0 
vn 0 -1 0 
vn -1 0 1.95132e-16 
vn -2.66535e-32 1 -1.36592e-16 
vn -1.95132e-16 0 -1 
vn 0 -1 0 
vn 1.95132e-16 2.73185e-16 1 
vn -1 0 1.95132e-16 
vn 2.66535e-32 1 1.36592e-16 
vn -1.95132e-16 1.36592e-16 -1 
vn 0 -1 0 
vn 1.95132e-16 0 1 
vn -1 0 1.95132e-16 
vn 0 1 0 
vn 0 -1 0 
vn -1 0 1.95132e-16 
vn -0.5547 -0.83205 1.0824e-16 
vn 0 -1 0 
vn 0.5547 -0.83205 -1.0824e-16 
vn 1 0 -1.95132e-16 
vn 0 -1 0 
vn 0 0 -1 
vn 0 0 1 
vn 0 1 0 
vn 1 0 -1.95132e-16 
vn 1.95132e-16 0 1 
vn 0 -1 0 
vn -1.95132e-16 0 -1 
vn 1 0 -1.95132e-16 
vn 2.66535e-32 1 1.36592e-16 
vn 1.95132e-16 0 1 
vn 0 -1 0 
vn -1.95132e-16 0 -1 
vn 1 0 -1.95132e-16 
usemtl 0.615686_0.811765_0.929412_0.000000_0.000000
o mesh0
f 1//1 2//1 3//1 
f 3//1 4//1 1//1 
o mesh1
f 5//2 6//2 1//2 
f 1//2 4//2 5//2 
o mesh2
f 7//3 8//3 6//3 
f 6//3 5//3 7//3 
o mesh3
f 9//4 10//4 8//4 
f 8//4 7//4 9//4 
o mesh4
f 10//5 9//5 11//5 
f 11//5 12//5 10//5 
o mesh5
f 13//6 12//6 11//6 
f 11//6 14//6 13//6 
o mesh6
f 15//5 16//5 13//5 
f 13//5 14//5 15//5 
o mesh7
f 15//7 17//7 18//7 
f 18//7 16//7 15//7 
o mesh8
f 19//6 3//6 2//6 
f 2//6 20//6 19//6 
o mesh9
f 21//8 22//8 19//8 
f 19//8 20//8 21//8 
o mesh10
f 21//7 23//7 24//7 
f 24//7 22//7 21//7 
o mesh11
f 23//8 25//8 26//8 
f 24//8 23//8 27//8 
f 26//8 27//8 23//8 
f 26//8 28//8 27//8 
f 23//8 29//8 30//8 
f 30//8 25//8 23//8 
f 29//8 31//8 32//8 
f 31//8 33//8 28//8 
f 32//8 30//8 29//8 
f 28//8 32//8 31//8 
f 28//8 26//8 32//8 
f 24//8 34//8 33//8 
f 33//8 31//8 24//8 
f 27//8 34//8 24//8 
o mesh12
f 35//9 28//9 33//9 
f 33//9 36//9 35//9 
o mesh13
f 36//10 33//10 34//10 
f 34//10 37//10 36//10 
o mesh14
f 37//11 34//11 27//11 
f 27//11 38//11 37//11 
o mesh15
f 38//12 27//12 28//12 
f 28//12 35//12 38//12 
o mesh16
f 38//13 35//13 36//13 
f 36//13 37//13 38//13 
o mesh17
f 39//14 30//14 32//14 
f 32//14 40//14 39//14 
o mesh18
f 40//15 32//15 26//15 
f 26//15 41//15 40//15 
o mesh19
f 41//16 26//16 25//16 
f 25//16 42//16 41//16 
o mesh20
f 42//17 25//17 30//17 
f 30//17 39//17 42//17 
o mesh21
f 42//18 39//18 40//18 
f 40//18 41//18 42//18 
o mesh22
f 43//19 31//19 29//19 
f 29//19 44//19 43//19 
o mesh23
f 45//18 43//18 44//18 
f 44//18 46//18 45//18 
o mesh24
f 46//20 47//20 48//20 
f 48//20 45//20 46//20 
o mesh25
f 49//21 50//21 48//21 
f 48//21 47//21 49//21 
o mesh26
f 50//22 49//22 51//22 
f 51//22 52//22 50//22 
o mesh27
f 53//23 54//23 52//23 
f 52//23 51//23 53//23 
o mesh28
f 54//24 53//24 55//24 
f 55//24 56//24 54//24 
o mesh29
f 56//25 55//25 57//25 
f 57//25 58//25 56//25 
o mesh30
f 59//26 58//26 57//26 
f 57//26 60//26 59//26 
o mesh31
f 53//27 61//27 57//27 
f 60//27 57//27 61//27 
f 51//27 18//27 61//27 
f 6//27 23//27 2//27 
f 20//27 2//27 23//27 
f 8//27 29//27 23//27 
f 61//27 62//27 60//27 
f 51//27 12//27 18//27 
f 51//27 47//27 8//27 
f 23//27 21//27 20//27 
f 8//27 47//27 29//27 
f 61//27 53//27 51//27 
f 16//27 18//27 12//27 
f 51//27 49//27 47//27 
f 23//27 6//27 8//27 
f 44//27 29//27 47//27 
f 12//27 13//27 16//27 
f 8//27 10//27 12//27 
f 47//27 46//27 44//27 
f 8//27 12//27 51//27 
f 57//27 55//27 53//27 
f 2//27 1//27 6//27 
o mesh32
f 52//28 31//28 48//28 
f 45//28 48//28 31//28 
f 54//28 24//28 31//28 
f 7//28 17//28 11//28 
f 14//28 11//28 17//28 
f 5//28 63//28 17//28 
f 31//28 43//28 45//28 
f 54//28 3//28 24//28 
f 5//28 3//28 54//28 
f 17//28 15//28 14//28 
f 5//28 58//28 63//28 
f 31//28 52//28 54//28 
f 22//28 24//28 3//28 
f 5//28 4//28 3//28 
f 17//28 7//28 5//28 
f 64//28 63//28 58//28 
f 3//28 19//28 22//28 
f 54//28 56//28 58//28 
f 58//28 59//28 64//28 
f 54//28 58//28 5//28 
f 48//28 50//28 52//28 
f 11//28 9//28 7//28 
o mesh33
f 62//29 61//29 63//29 
f 63//29 64//29 62//29 
o mesh34
f 60//30 62//30 64//30 
f 64//30 59//30 60//30 
o mesh35
f 17//30 65//30 66//30 
f 66//30 67//30 17//30 
f 17//30 63//30 68//30 
f 18//30 69//30 70//30 
f 18//30 17//30 67//30 
f 68//30 65//30 17//30 
f 63//30 61//30 71//30 
f 67//30 69//30 18//30 
f 71//30 68//30 63//30 
f 61//30 70//30 72//30 
f 66//30 72//30 67//30 
f 72//30 71//30 61//30 
f 72//30 66//30 71//30 
f 70//30 61//30 18//30 
o mesh36
f 73//29 72//29 70//29 
f 70//29 74//29 73//29 
o mesh37
f 74//31 70//31 69//31 
f 69//31 75//31 74//31 
o mesh38
f 75//32 69//32 67//32 
f 67//32 76//32 75//32 
o mesh39
f 76//33 67//33 72//33 
f 72//33 73//33 76//33 
o mesh40
f 76//34 73//34 74//34 
f 74//34 75//34 76//34 
o mesh41
f 77//35 68//35 71//35 
f 71//35 78//35 77//35 
o mesh42
f 78//36 71//36 66//36 
f 66//36 79//36 78//36 
o mesh43
f 79//37 66//37 65//37 
f 65//37 80//37 79//37 
o mesh44
f 80//38 65//38 68//38 
f 68//38 77//38 80//38 
o mesh45
f 80//39 77//39 78//39 
f 78//39 79//39 80//39 
